PathFileType	4	(X/Y/Z)	/Users/itak/Documents/Research/Walk-IL/dataset/trc/00443_00167.trc
DataRate	CameraRate	NumFrames	NumMarkers	Units	OrigDataRate	OrigDataStartFrame	OrigNumFrames
100.000000	100.000000	4	54	mm	100.000000	122	491
Frame#	Time	RPSI			LPSI			L3			STRN			T10			C7			CLAV			RBAK			LBAK			LSHO			LUPA			LAEL			LAOL			LWTS			LWPS			LFRA			LIFD			LHPS			RSHO			RUPA			RAEL			RAOL			RWTS			RWPS			RFRA			RIFD			RHTS			RHPS			RBHD			LFHD			RFHD			LBHD			LHIP			RHIP			RASI			LASI			LKNE			LTHI			LANK			LTIP			LTOE			LMT1			LMT5			LHEE			RKNE			RTHI			RANK			RTIP			RTOE			RMT1			RMT5			RHEE			LHTS			*53			
		X1	Y1	Z1	X2	Y2	Z2	X3	Y3	Z3	X4	Y4	Z4	X5	Y5	Z5	X6	Y6	Z6	X7	Y7	Z7	X8	Y8	Z8	X9	Y9	Z9	X10	Y10	Z10	X11	Y11	Z11	X12	Y12	Z12	X13	Y13	Z13	X14	Y14	Z14	X15	Y15	Z15	X16	Y16	Z16	X17	Y17	Z17	X18	Y18	Z18	X19	Y19	Z19	X20	Y20	Z20	X21	Y21	Z21	X22	Y22	Z22	X23	Y23	Z23	X24	Y24	Z24	X25	Y25	Z25	X26	Y26	Z26	X27	Y27	Z27	X28	Y28	Z28	X29	Y29	Z29	X30	Y30	Z30	X31	Y31	Z31	X32	Y32	Z32	X33	Y33	Z33	X34	Y34	Z34	X35	Y35	Z35	X36	Y36	Z36	X37	Y37	Z37	X38	Y38	Z38	X39	Y39	Z39	X40	Y40	Z40	X41	Y41	Z41	X42	Y42	Z42	X43	Y43	Z43	X44	Y44	Z44	X45	Y45	Z45	X46	Y46	Z46	X47	Y47	Z47	X48	Y48	Z48	X49	Y49	Z49	X50	Y50	Z50	X51	Y51	Z51	X52	Y52	Z52	X53	Y53	Z53	X54	Y54	Z54	

123	1.22	-1154.30078125	975.3099975585938	-450.8428344726562	-1076.920532226562	971.1524047851562	-569.39892578125	-1113.52490234375	1059.027587890625	-491.4827575683594	-878.6094360351562	1253.846069335938	-366.7067565917969	-1128.971435546875	1183.447631835938	-505.9733276367188	-1080.234741210938	1452.798706054688	-463.9347534179688	-909.1222534179688	1367.850952148438	-387.7725219726562	-1179.366943359375	1330.87353515625	-408.0294189453125	-1058.914916992188	1405.1806640625	-567.5391845703125	-927.806884765625	1424.95263671875	-586.1083374023438	-882.119873046875	1303.990478515625	-673.176025390625	-842.0101928710938	1084.296508789062	-674.4072265625	-945.2178955078125	1071.016723632812	-670.1525268554688	-808.5567016601562	885.4091186523438	-579.3606567382812	-809.1751708984375	866.7672729492188	-651.2462158203125	-819.9470825195312	997.09423828125	-664.8604736328125	-809.9375610351562	716.5455322265625	-571.6246948242188	-807.6671142578125	785.5548706054688	-641.699462890625	-1092.235107421875	1419.546752929688	-286.9275512695312	-1139.34814453125	1357.112915039062	-225.1449737548828	-1146.050537109375	1068.325073242188	-171.9224395751953	-1186.78271484375	1052.785034179688	-223.8899841308594	-1033.568481445312	869.0115966796875	-195.0887756347656	-1112.245239257812	851.0856323242188	-157.7967681884766	-1143.922485351562	1009.470703125	-163.3597106933594	-1030.607543945312	709.9111938476562	-188.2964935302734	-1020.166137695312	769.578369140625	-179.9332580566406	-1092.341918945312	764.65283203125	-156.7238922119141	-1062.782348632812	1645.4775390625	-356.15576171875	-867.1275634765625	1674.787963867188	-418.2661437988281	-936.365478515625	1673.425903320312	-307.2504577636719	-982.660888671875	1651.092651367188	-515.3424682617188	-903.4000244140625	856.9307861328125	-596.2899780273438	-1137.819458007812	863.4505615234375	-275.7401428222656	-1015.273376464844	899.3017578125	-267.7307434082031	-863.2528076171875	892.6949462890625	-477.3674011230469	-954.1275634765625	435.315185546875	-558.1873168945312	-908.5480346679688	584.76318359375	-566.51025390625	-1046.776611328125	34.54068374633789	-587.3489990234375	-967.9014282226562	283.9994506835938	-568.2997436523438	-900.518798828125	45.63573455810547	-404.7191772460938	-978.6532592773438	49.53543853759766	-421.3753967285156	-917.126708984375	47.41411209106445	-516.1497802734375	-1120.487426757812	39.56705093383789	-577.3526000976562	-1117.71728515625	464.0636596679688	-299.529052734375	-1110.638549804688	725.9179077148438	-247.7009582519531	-1165.597290039062	40.63472366333008	-340.4432373046875	-1135.25634765625	319.9716491699219	-297.3313903808594	-958.2991333007812	48.8869514465332	-270.2985534667969	-993.9594116210938	55.30649948120117	-333.5374755859375	-1064.0458984375	47.79221725463867	-250.7119750976562	-1198.949340820312	32.03240203857422	-413.7633361816406	-794.7938232421875	794.7675170898438	-572.0841674804688	nan	nan	nan	
124	1.23	-1153.175659179688	974.9536743164062	-451.099853515625	-1076.02978515625	970.9349365234375	-569.8434448242188	-1112.506958007812	1059.048217773438	-491.8641967773438	-877.3224487304688	1253.625610351562	-367.1877746582031	-1127.904663085938	1183.4775390625	-506.0769348144531	-1079.01953125	1452.741455078125	-463.8559265136719	-907.8311157226562	1367.661743164062	-388.1007995605469	-1178.10693359375	1330.825927734375	-407.9593811035156	-1057.843627929688	1405.233642578125	-567.5574951171875	-926.794921875	1424.967407226562	-586.3237915039062	-881.2611083984375	1304.046020507812	-673.4854736328125	-841.1021118164062	1084.334838867188	-674.6657104492188	-944.3746337890625	1071.024047851562	-670.3897094726562	-807.5552368164062	885.4973754882812	-579.5313110351562	-808.2308959960938	866.8155517578125	-651.4083862304688	-819.0350952148438	997.1251220703125	-665.0593872070312	-808.8533935546875	716.6400756835938	-571.613525390625	-806.7185668945312	785.5929565429688	-641.79541015625	-1090.772705078125	1419.30615234375	-286.8731384277344	-1137.894775390625	1356.897216796875	-225.1383361816406	-1145.271118164062	1068.167846679688	-172.0530548095703	-1185.882934570312	1052.660766601562	-224.1222229003906	-1032.830444335938	868.8095703125	-194.9104461669922	-1111.632202148438	850.9290161132812	-157.7834777832031	-1143.215209960938	1009.300842285156	-163.4698638916016	-1029.919555664062	709.7108154296875	-188.0934448242188	-1019.464477539062	769.3587036132812	-179.7365875244141	-1091.718627929688	764.4611206054688	-156.7360687255859	-1061.2568359375	1645.317504882812	-355.9839477539062	-865.7001342773438	1674.560302734375	-418.3440246582031	-934.7732543945312	1673.184448242188	-307.223388671875	-981.3717651367188	1651.019287109375	-515.2864990234375	-901.6210327148438	856.0691528320312	-596.7069702148438	-1136.274536132812	863.1890869140625	-275.8491516113281	-1013.850463867188	899.1502075195312	-268.4486083984375	-862.1250610351562	892.5946044921875	-478.254638671875	-953.3308715820312	435.0645446777344	-558.3632202148438	-907.72314453125	584.5474243164062	-566.9349365234375	-1046.831909179688	34.47832870483398	-587.4400634765625	-967.4005126953125	283.7763977050781	-568.2996826171875	-900.7684936523438	45.81254196166992	-404.6358947753906	-978.8109741210938	49.58432388305664	-421.4319458007812	-917.3446655273438	47.59802627563477	-516.1514892578125	-1120.5439453125	39.4650764465332	-577.4614868164062	-1114.88330078125	463.7541198730469	-298.6103820800781	-1108.566284179688	725.7657470703125	-247.5088500976562	-1165.671020507812	40.5497932434082	-340.39453125	-1133.420532226562	319.7926330566406	-296.7892761230469	-958.4061889648438	48.97978210449219	-270.2494506835938	-994.0521850585938	55.32436370849609	-333.515869140625	-1064.072631835938	47.76304626464844	-250.7077484130859	-1199.009887695312	31.9510612487793	-413.7284851074219	-793.7532958984375	794.8765869140625	-572.1841430664062	nan	nan	nan	
125	1.24	-1152.017822265625	974.5322875976562	-451.3554077148438	-1075.111450195312	970.6661376953125	-570.3070678710938	-1111.472534179688	1059.049560546875	-492.2874755859375	-875.9823608398438	1253.380493164062	-367.7042541503906	-1126.803588867188	1183.474731445312	-506.2137756347656	-1077.759399414062	1452.643920898438	-463.7889709472656	-906.4912719726562	1367.442749023438	-388.473388671875	-1176.8017578125	1330.744140625	-407.9034729003906	-1056.739868164062	1405.26806640625	-567.5928955078125	-925.7366943359375	1424.979248046875	-586.5541381835938	-880.3714599609375	1304.095947265625	-673.8239135742188	-840.1553955078125	1084.37109375	-674.958740234375	-943.4520263671875	1071.003662109375	-670.6405029296875	-806.5044555664062	885.595703125	-579.7241821289062	-807.2606811523438	866.8597412109375	-651.598388671875	-818.0835571289062	997.1547241210938	-665.2783813476562	-807.6815185546875	716.734130859375	-571.5975952148438	-805.7102661132812	785.6353149414062	-641.9013671875	-1089.267211914062	1419.015258789062	-286.8303527832031	-1136.38720703125	1356.632202148438	-225.1643524169922	-1144.457153320312	1067.977294921875	-172.1805572509766	-1184.938110351562	1052.50048828125	-224.3607330322266	-1032.067260742188	868.5760498046875	-194.6717071533203	-1110.992919921875	850.7423706054688	-157.7395477294922	-1142.4794921875	1009.097961425781	-163.5749053955078	-1029.224609375	709.4657592773438	-187.8131256103516	-1018.75048828125	769.1051635742188	-179.4755859375	-1091.080078125	764.2449340820312	-156.6956634521484	-1059.686157226562	1645.103759765625	-355.8073120117188	-864.2191772460938	1674.283569335938	-418.3995971679688	-933.1369018554688	1672.876831054688	-307.1675415039062	-980.0415649414062	1650.886108398438	-515.2018432617188	-899.9357299804688	855.2892456054688	-597.2118530273438	-1134.667236328125	862.8544311523438	-275.945556640625	-1012.39306640625	898.9686889648438	-269.2276306152344	-860.9703979492188	892.47119140625	-479.1795043945312	-952.4750366210938	434.821533203125	-558.5195922851562	-906.85791015625	584.3218994140625	-567.3507080078125	-1046.916259765625	34.39743423461914	-587.539794921875	-966.902587890625	283.524658203125	-568.302490234375	-901.0328979492188	46.04389572143555	-404.5576477050781	-978.9683227539062	49.65451431274414	-421.4913330078125	-917.5651245117188	47.77460479736328	-516.1527709960938	-1120.60205078125	39.35749816894531	-577.5728149414062	-1111.672485351562	463.3900451660156	-297.4977111816406	-1106.329467773438	725.5526123046875	-247.2541351318359	-1165.738891601562	40.45033645629883	-340.3453063964844	-1131.362426757812	319.5903625488281	-296.1196594238281	-958.51123046875	49.06101989746094	-270.21337890625	-994.148681640625	55.34379196166992	-333.4893188476562	-1064.107421875	47.72448348999023	-250.6810607910156	-1199.057861328125	31.87183380126953	-413.6984252929688	-792.6784057617188	795.0009155273438	-572.307861328125	nan	nan	nan	
126	1.25	-1150.837158203125	974.0353393554688	-451.6165771484375	-1074.164184570312	970.342529296875	-570.7822265625	-1110.429443359375	1059.021240234375	-492.7479858398438	-874.59228515625	1253.103515625	-368.2527465820312	-1125.67041015625	1183.4306640625	-506.3915710449219	-1076.451293945312	1452.500732421875	-463.7366333007812	-905.1034545898438	1367.187744140625	-388.88671875	-1175.451049804688	1330.617553710938	-407.8684997558594	-1055.598876953125	1405.277099609375	-567.6423950195312	-924.6307373046875	1424.979248046875	-586.8006591796875	-879.4434204101562	1304.13330078125	-674.192626953125	-839.1748657226562	1084.397583007812	-675.297119140625	-942.447509765625	1070.955688476562	-670.9168090820312	-805.4046020507812	885.7008666992188	-579.9390258789062	-806.2616577148438	866.890380859375	-651.8167114257812	-817.0939331054688	997.1764526367188	-665.5313720703125	-806.4437255859375	716.8192138671875	-571.5894165039062	-804.638427734375	785.673095703125	-642.0137939453125	-1087.718017578125	1418.668212890625	-286.8059997558594	-1134.82861328125	1356.309814453125	-225.2184448242188	-1143.609008789062	1067.750854492188	-172.3054504394531	-1183.950561523438	1052.298950195312	-224.6028289794922	-1031.277587890625	868.304443359375	-194.3705902099609	-1110.324829101562	850.51953125	-157.6651763916016	-1141.709838867188	1008.861694335938	-163.6759948730469	-1028.523803710938	709.1741333007812	-187.4550933837891	-1018.027404785156	768.8172607421875	-179.1465759277344	-1090.430297851562	764	-156.5930023193359	-1058.067504882812	1644.82568359375	-355.622314453125	-862.6842041015625	1673.947509765625	-418.4288635253906	-931.4530639648438	1672.49267578125	-307.0848999023438	-978.666259765625	1650.693969726562	-515.0880737304688	-898.4786987304688	854.6956787109375	-597.864501953125	-1133.003784179688	862.428466796875	-276.031982421875	-1010.909362792969	898.75244140625	-270.0621032714844	-859.8032836914062	892.3218383789062	-480.1422424316406	-951.5543823242188	434.591552734375	-558.6559448242188	-905.944091796875	584.0858764648438	-567.7490234375	-1047.021850585938	34.29660034179688	-587.6471557617188	-966.3905639648438	283.2332153320312	-568.2977905273438	-901.3115844726562	46.33876037597656	-404.4864807128906	-979.1333618164062	49.75007247924805	-421.5492858886719	-917.7933959960938	47.94937896728516	-516.1478271484375	-1120.663940429688	39.24203491210938	-577.6901245117188	-1108.055297851562	462.9700622558594	-296.159423828125	-1103.929809570312	725.2672119140625	-246.9334564208984	-1165.794799804688	40.34585952758789	-340.2927856445312	-1129.061157226562	319.3663940429688	-295.3007507324219	-958.6085205078125	49.12140655517578	-270.18408203125	-994.2442016601562	55.36884307861328	-333.4494018554688	-1064.152465820312	47.67323303222656	-250.6217041015625	-1199.08544921875	31.81820678710938	-413.6751403808594	-791.5659790039062	795.133544921875	-572.4560546875	nan	nan	nan	
